#define export_width 48
#define export_height 64
static unsigned char export_bits[] = {
   0x00, 0x00, 0x00, 0x00, 0x00, 0x00, 0x00, 0x00, 0x00, 0x00, 0x00, 0x00,
   0x00, 0x00, 0x00, 0x00, 0x00, 0x00, 0x00, 0x00, 0x00, 0x00, 0x00, 0x00,
   0xc0, 0x3b, 0x77, 0x00, 0x52, 0x95, 0x40, 0x48, 0x92, 0x00, 0x4a, 0x95,
   0x40, 0x3b, 0x92, 0x00, 0x46, 0xf5, 0x40, 0x4a, 0x92, 0x00, 0x4a, 0x95,
   0xc0, 0x4b, 0x77, 0x00, 0x92, 0x93, 0x00, 0x00, 0x00, 0x00, 0x00, 0x00,
   0x00, 0x00, 0x00, 0x00, 0x00, 0x04, 0x00, 0xf8, 0x07, 0x00, 0x00, 0x0c,
   0x00, 0xfc, 0x0f, 0x00, 0xf8, 0x1f, 0x00, 0xfe, 0x1f, 0x00, 0xf8, 0x3f,
   0x80, 0x0f, 0x7c, 0x00, 0xf8, 0x1f, 0xc0, 0x0b, 0xf4, 0x00, 0x00, 0x0c,
   0xe0, 0x09, 0xe4, 0x01, 0x00, 0x04, 0xf8, 0x08, 0xc4, 0x07, 0x00, 0x00,
   0xf8, 0xff, 0xff, 0x07, 0x00, 0x00, 0xfc, 0xff, 0xff, 0x0f, 0x00, 0x00,
   0x10, 0x18, 0x06, 0x02, 0x00, 0x00, 0x10, 0x18, 0x06, 0x02, 0x00, 0x00,
   0x10, 0x18, 0x06, 0x02, 0x00, 0x00, 0x78, 0x0c, 0x8c, 0x07, 0x00, 0x00,
   0x78, 0x0c, 0x8c, 0x07, 0x00, 0x00, 0x78, 0x0c, 0x8c, 0x07, 0x4e, 0xe4,
   0x00, 0x0c, 0x0c, 0x00, 0xc2, 0xa6, 0x00, 0x0c, 0x0c, 0x00, 0x8e, 0xe3,
   0x00, 0xfc, 0x0f, 0x00, 0xc2, 0x26, 0x00, 0x0e, 0x1c, 0x00, 0x4e, 0x24,
   0x00, 0x0f, 0x3c, 0x00, 0x00, 0x00, 0x80, 0x0f, 0x7c, 0x00, 0x40, 0x00,
   0xe0, 0x09, 0xe4, 0x01, 0x60, 0x00, 0xe0, 0x08, 0xc4, 0x01, 0xf0, 0x3f,
   0x78, 0x0c, 0x8c, 0x07, 0xf8, 0x3f, 0xfc, 0xff, 0xff, 0x0f, 0xf0, 0x3f,
   0xfc, 0xff, 0xff, 0x0f, 0x60, 0x00, 0x10, 0x1e, 0x1e, 0x02, 0x40, 0x00,
   0x10, 0x36, 0x1b, 0x02, 0x00, 0x00, 0x78, 0xe6, 0x99, 0x07, 0x00, 0x00,
   0x78, 0xc6, 0x98, 0x07, 0x00, 0x00, 0x00, 0xc3, 0x30, 0x00, 0x00, 0x00,
   0x00, 0xe1, 0x21, 0x00, 0x00, 0x00, 0x00, 0xf1, 0x23, 0x00, 0x00, 0x00,
   0x00, 0x39, 0x27, 0x00, 0x00, 0x00, 0x80, 0x19, 0x66, 0x00, 0x00, 0x00,
   0x80, 0x0d, 0x6c, 0x00, 0x52, 0x95, 0x80, 0x07, 0x78, 0x00, 0x4a, 0x95,
   0x80, 0x07, 0x78, 0x00, 0x46, 0xf5, 0x80, 0x03, 0x70, 0x00, 0x4a, 0x95,
   0xc0, 0x01, 0xe0, 0x00, 0x92, 0x93, 0xf0, 0x07, 0xf8, 0x03, 0x00, 0x00,
   0xf0, 0x07, 0xf8, 0x03, 0x40, 0x00, 0xf0, 0x07, 0xf8, 0x03, 0x60, 0x00,
   0xf0, 0x07, 0xf8, 0x03, 0xf0, 0x3f, 0x00, 0x00, 0x00, 0x00, 0xf8, 0x3f,
   0x00, 0x00, 0x00, 0x00, 0xf0, 0x3f, 0x00, 0x00, 0x00, 0x00, 0x60, 0x00,
   0x00, 0x00, 0x00, 0x00, 0x40, 0x00, 0x00, 0x00, 0x00, 0x00, 0x00, 0x00,
   0x00, 0x00, 0x00, 0x00, 0x00, 0x00, 0x00, 0x00, 0x00, 0x00, 0x00, 0x00,
   0x00, 0x00, 0x00, 0x00, 0x00, 0x00, 0x00, 0x00, 0x00, 0x00, 0x00, 0x00 };
